<svg width="156" height="183" viewBox="0 0 156 183" fill="none" xmlns="http://www.w3.org/2000/svg">
<g id="Group" opacity="0.5">
<path id="Vector" d="M104.073 68.8637C100.828 69.1081 97.6391 69.9971 94.7277 71.4306C92.1163 72.7085 89.3272 75.8755 86.9381 76.5422C90.7385 69.8748 98.0392 63.3408 103.695 58.1403C109.807 52.5286 116.741 47.6947 124.742 45.25C128.565 44.0832 132.576 43.472 136.166 41.7274C141.355 39.216 145.155 34.6044 148.789 30.1373C145.933 35.3823 143.088 40.6162 140.233 45.8612C137.555 50.7839 134.843 55.7623 131.132 59.9627C127.42 64.1632 122.564 67.5857 117.041 68.5414C112.785 69.3081 108.396 68.5414 104.073 68.8637Z" fill="#AFAF91"/>
<path id="Vector_2" d="M153.755 74.8657C154.5 74.3545 155.255 73.8433 156 73.3322C155.355 74.01 154.589 74.4989 153.755 74.8657Z" fill="#AFAF91"/>
<path id="Vector_3" d="M34.5635 120.669C35.4636 120.403 36.5858 120.292 37.5637 120.192C37.8304 120.169 38.0861 120.136 38.3194 120.114C40.2196 119.892 41.9198 119.98 44.1867 120.403C45.8869 120.725 47.4315 120.947 48.9095 121.158C50.3874 121.37 51.9209 121.592 53.6211 121.914L53.5766 122.158C58.2993 123.259 66.3113 129.693 68.1782 132.56C72.812 139.671 74.1677 148.45 74.1232 156.94C74.0788 165.43 72.723 173.853 72.4341 182.332C73.112 177.62 72.023 172.664 69.4338 168.675C66.9114 164.785 63.122 161.896 60.3328 158.207C53.6765 149.406 53.1766 137.438 50.443 127.115C49.5873 123.859 50.2207 122.392 51.6653 122.081C50.6985 121.925 49.7539 121.781 48.8427 121.647C47.3537 121.436 45.809 121.214 44.0978 120.881C41.8864 120.458 40.2195 120.369 38.3749 120.592C38.1304 120.625 37.8749 120.647 37.6082 120.669C36.6414 120.769 35.5524 120.869 34.6857 121.125C32.341 121.814 29.574 122.581 26.9071 123.336C24.8735 123.903 22.8288 124.481 20.9175 125.025C14.3613 127.859 7.50501 130.104 0.537604 130.648C0.148673 130.682 0.17092 130.07 0.559852 130.048C6.84942 129.559 13.0501 127.67 19.0396 125.203L19.0062 125.081C19.3285 124.981 19.7062 124.881 20.0396 124.781C24.8401 122.747 29.4962 120.38 33.93 118.047C37.9637 115.924 41.8864 113.602 45.7424 111.168C45.3423 105.601 44.7645 100.401 42.8198 95C40.1418 87.5659 36.4414 80.3762 35.4635 72.531C34.1633 62.041 37.8861 51.6509 41.5531 41.7388C41.9754 48.2283 46.5314 53.5734 49.5317 59.3407C54.2878 68.4972 55.1767 79.3205 53.5321 89.5105C52.6209 95.1111 51.043 105.601 46.9092 110.435C52.3876 106.924 57.6881 103.145 62.7331 99.056C69.7005 93.411 76.0345 87.2659 81.8907 80.7318C81.3462 80.5207 80.6795 78.865 79.8461 76.6758C78.3681 72.8199 76.9458 68.9305 75.7012 64.9857C73.2454 57.1737 71.4341 49.0951 71.2452 40.8831C71.034 31.7488 72.7898 22.6923 74.5566 13.7246C74.3455 23.9035 83.8576 31.6155 86.5134 41.4498C89.5471 52.6733 84.3354 66.7637 82.9241 78.0316C82.813 78.9317 82.6797 79.5095 82.5463 79.9651C91.314 70.064 99.0037 59.2629 105.971 47.7506C106.049 47.6283 106.16 47.6172 106.26 47.6283C108.894 43.7834 109.716 39.0052 111.327 34.6158C114.261 26.6594 119.95 19.9587 126.518 14.5914C133.085 9.2242 140.53 5.0793 147.942 0.956634C142.797 4.03474 139.186 9.15752 136.363 14.447C133.53 19.7364 131.296 25.3592 128.04 30.4042C123.184 37.9161 116.083 43.939 107.893 47.5172L106.471 47.7394C106.527 47.8283 106.56 47.9283 106.493 48.0394C94.2476 68.2416 79.8905 86.2768 61.2552 100.967C66.3113 98.1003 71.3785 95.2556 76.5346 92.5775C81.5907 89.955 86.8357 86.8436 92.4696 85.6768C92.6252 85.6434 92.7141 85.7323 92.7697 85.8324C100.315 82.5209 106.771 76.9648 114.761 74.6201C124.829 71.6753 135.541 74.4756 145.975 75.5202C148.576 75.7869 151.443 75.8313 153.754 74.8201C146.853 79.5539 139.875 84.21 132.341 87.8437C130.085 88.9327 127.74 89.955 125.251 90.2884C121.662 90.7773 118.061 89.8328 114.528 89.0661C107.004 87.4437 98.7147 86.0879 90.9917 86.6546C85.8356 88.0659 80.9683 90.9218 76.29 93.3665C70.445 96.4224 64.7 99.6672 58.9771 102.934C58.8549 103.001 58.766 102.967 58.6771 102.901C56.2546 104.745 53.7766 106.512 51.2541 108.235L53.4432 107.135C55.5657 106.068 57.7437 104.968 60.0995 104.334C61.8552 103.868 64.2222 103.49 66.3891 103.879C75.1789 103.579 84.0354 103.356 92.6808 104.946C100.771 106.435 108.449 109.502 115.772 113.169C119.472 115.013 123.073 117.036 126.651 119.114C130.251 121.203 132.463 122.547 127.507 122.37C116.15 121.97 101.415 124.881 90.8139 120.103C82.2352 116.247 76.3679 106.901 67.578 104.39L67.5003 104.601C65.1667 103.768 62.2553 104.245 60.2217 104.79C57.9215 105.412 55.7545 106.501 53.6654 107.546L48.1093 110.335C43.0087 113.646 37.7527 116.725 32.3299 119.492C29.5962 120.881 26.7848 122.281 23.9178 123.614C24.8623 123.347 25.8181 123.081 26.7737 122.814C29.4518 122.125 32.2188 121.358 34.5635 120.669Z" fill="#AFAF91"/>
</g>
</svg>
