<svg width="56" height="56" viewBox="0 0 56 56" fill="none" xmlns="http://www.w3.org/2000/svg">
<g id="Group 3288">
<path id="Vector" d="M17.7177 33.2806L23.7954 39.4679C24.2123 39.8913 24.8914 39.8978 25.3148 39.4808C25.7382 39.0639 25.7446 38.3848 25.3277 37.9593L19.2435 31.7655C18.8417 31.3636 18.2807 30.749 17.7069 30.1021C17.4254 29.784 17.2255 29.4229 17.0923 29.0426L39.4517 29.0426C40.0449 29.0426 40.5263 28.5612 40.5263 27.968C40.5263 27.3748 40.0449 26.8934 39.4517 26.8934L17.0923 26.8934C17.2277 26.513 17.4254 26.152 17.7091 25.8339C18.2807 25.187 18.8417 24.5724 19.25 24.164L25.3277 17.9767C25.7446 17.5533 25.7382 16.8721 25.3148 16.4551C25.1042 16.251 24.8334 16.1478 24.5605 16.1478C24.2832 16.1478 24.0039 16.2553 23.7954 16.468L17.7241 22.6489C17.2986 23.0744 16.7033 23.7235 16.0994 24.4069C14.3006 26.4357 14.3006 29.496 16.0994 31.5248C16.7054 32.2082 17.3007 32.8594 17.7177 33.2763L17.7177 33.2806Z" fill="#9E9E9E"/>
<path id="Ellipse 45" d="M6.26253e-06 28C7.61444e-06 12.536 12.536 1.49563e-08 28 1.36686e-06C43.464 2.71876e-06 56 12.536 56 28C56 43.464 43.464 56 28 56C12.536 56 4.91063e-06 43.464 6.26253e-06 28ZM53.8636 28C53.8636 13.7159 42.2841 2.13637 28 2.13637C13.7159 2.13637 2.13638 13.7159 2.13638 28C2.13638 42.2841 13.7159 53.8636 28 53.8636C42.2841 53.8636 53.8636 42.2841 53.8636 28Z" fill="#D9D9D9"/>
</g>
</svg>
