<svg width="172" height="231" viewBox="0 0 172 231" fill="none" xmlns="http://www.w3.org/2000/svg">
<g id="Group">
<path id="Vector" d="M170.441 217.003C137.768 209.331 106.937 194.006 81.1063 172.609C60.1947 155.3 41.9755 132.81 36.9348 106.149C31.1046 75.2169 43.6355 44.1026 55.8829 15.1138" stroke="#657E68" stroke-width="1.4274" stroke-miterlimit="10" stroke-linecap="round" stroke-linejoin="round"/>
<path id="Vector_2" d="M44.724 42.7665C41.6065 28.5151 47.0723 12.7049 58.3479 3.43338C59.4209 2.54266 60.595 1.69229 61.9311 1.26718C63.2672 0.842061 64.8259 0.882716 65.9596 1.69246C67.4171 2.70464 67.8827 4.70871 67.579 6.44965C67.2754 8.1906 66.3239 9.74937 65.3927 11.2676C58.4086 22.6648 51.7486 31.3492 44.724 42.7665Z" stroke="#657E68" stroke-width="1.4274" stroke-miterlimit="10" stroke-linecap="round" stroke-linejoin="round"/>
<path id="Vector_3" d="M40.0714 58.1316C46.8125 49.103 55.2743 40.7424 64.3839 34.1025C65.8415 33.0498 67.3598 31.9969 69.121 31.6326C70.8822 31.2682 72.9268 31.7339 73.939 33.2319C74.7285 34.3858 74.7285 35.9445 74.2831 37.2603C73.8377 38.5762 72.9875 39.7301 72.117 40.8232C63.3515 51.8762 51.59 60.5608 38.4316 65.6419" stroke="#657E68" stroke-width="1.4274" stroke-miterlimit="10" stroke-linecap="round" stroke-linejoin="round"/>
<path id="Vector_4" d="M38.2499 65.1761C36.1244 55.3377 31.3873 46.0864 24.6462 38.6165C23.7352 37.6043 22.7636 36.6123 21.549 36.005C20.3344 35.3977 18.8161 35.2762 17.642 35.9847C16.4679 36.6933 15.901 38.1508 15.8808 39.5274C15.8808 40.9039 16.3464 42.2399 16.8525 43.5153C21.1441 54.3051 27.8245 63.2933 37.2175 70.1154" stroke="#657E68" stroke-width="1.4274" stroke-miterlimit="10" stroke-linecap="round" stroke-linejoin="round"/>
<path id="Vector_5" d="M35.4962 92.8895C41.8122 79.2453 53.7154 67.1194 67.5822 61.2892C69.971 60.2771 73.0884 59.5687 74.8901 61.4311C76.0642 62.6659 76.1655 64.6295 75.5582 66.2085C74.9509 67.7875 73.7767 69.1032 72.6228 70.3381C61.6306 82.0793 49.5857 92.2823 36.144 101.108" stroke="#657E68" stroke-width="1.4274" stroke-miterlimit="10" stroke-linecap="round" stroke-linejoin="round"/>
<path id="Vector_6" d="M36.9339 106.129C31.3062 95.6631 22.7837 86.4524 13.6134 78.9015C11.9736 77.5655 10.2529 76.2494 8.2285 75.6624C6.20414 75.0753 3.79521 75.3789 2.33767 76.8972C0.961108 78.3547 0.718145 80.6221 1.28497 82.5655C1.83154 84.5089 3.04614 86.169 4.30124 87.748C13.4918 99.469 25.3749 109.044 38.7761 115.522" stroke="#657E68" stroke-width="1.4274" stroke-miterlimit="10" stroke-linecap="round" stroke-linejoin="round"/>
<path id="Vector_7" d="M45.7148 130.907C51.4033 114.105 61.2822 99.1857 74.4202 87.242C76.4041 85.4403 78.8536 83.598 81.4852 84.1041C84.2384 84.6304 85.8983 87.7076 85.7971 90.5214C85.6959 93.3353 84.2586 95.8859 82.7809 98.2746C73.8534 112.749 62.1527 125.522 48.5287 135.685" stroke="#657E68" stroke-width="1.4274" stroke-miterlimit="10" stroke-linecap="round" stroke-linejoin="round"/>
<path id="Vector_8" d="M56.8506 147.993C48.1256 136.636 34.0563 127.364 20.1489 124.024C18.3675 123.599 16.5253 123.255 14.7236 123.478C12.9017 123.72 11.1001 124.631 10.1891 126.231C9.29838 127.81 9.41978 129.794 10.1283 131.454C10.8368 133.114 12.0312 134.511 13.2863 135.826C25.6349 148.762 43.9757 155.726 61.8103 154.248" stroke="#657E68" stroke-width="1.4274" stroke-miterlimit="10" stroke-linecap="round" stroke-linejoin="round"/>
<path id="Vector_9" d="M77.297 169.37C74.4831 153.823 76.3659 137.385 83.188 123.134C84.1192 121.19 85.1516 119.267 86.7103 117.789C88.2691 116.312 90.4554 115.36 92.5608 115.724C94.8888 116.129 96.7106 118.093 97.5609 120.299C98.4111 122.506 98.4516 124.915 98.3707 127.283C97.8241 144.045 92.1356 159.977 81.5886 173.014" stroke="#657E68" stroke-width="1.4274" stroke-miterlimit="10" stroke-linecap="round" stroke-linejoin="round"/>
<path id="Vector_10" d="M89.6666 179.35C75.3138 176.739 61.3054 176.739 47.1146 180.139C44.0376 180.868 40.6771 181.982 39.1386 184.755C37.175 188.298 39.3613 192.994 42.8432 195.079C46.3049 197.144 50.5964 197.225 54.6249 196.962C68.5727 196.071 83.6138 190.747 95.7195 183.743" stroke="#657E68" stroke-width="1.4274" stroke-miterlimit="10" stroke-linecap="round" stroke-linejoin="round"/>
<path id="Vector_11" d="M114.606 195.424C109.16 178.723 108.958 161.9 112.804 144.754C113.432 141.96 114.363 138.944 116.812 137.446C120.355 135.3 125.234 137.831 127.055 141.535C128.877 145.24 128.513 149.613 128.047 153.722C126.347 168.905 124.039 184.027 121.104 199.027" stroke="#657E68" stroke-width="1.4274" stroke-miterlimit="10" stroke-linecap="round" stroke-linejoin="round"/>
<path id="Vector_12" d="M127.443 202.043C111.026 202.367 94.669 205.525 79.3243 211.335C75.8222 212.671 72.0164 214.493 70.741 218.015C69.2025 222.287 72.4618 227.145 76.6927 228.845C80.9033 230.546 85.6809 229.898 90.1344 228.927C107.382 225.181 123.071 217.549 136.371 205.97" stroke="#657E68" stroke-width="1.4274" stroke-miterlimit="10" stroke-linecap="round" stroke-linejoin="round"/>
<path id="Vector_13" d="M37.7205 68.1521C32.0119 59.9332 26.3639 50.9046 22.0723 41.876" stroke="#657E68" stroke-width="1.4274" stroke-miterlimit="10" stroke-linecap="round" stroke-linejoin="round"/>
<path id="Vector_14" d="M39.0001 62.3826C49.4458 55.2164 59.4866 47.3619 68.3533 38.313" stroke="#657E68" stroke-width="1.4274" stroke-miterlimit="10" stroke-linecap="round" stroke-linejoin="round"/>
<path id="Vector_15" d="M35.9375 96.8168C46.1605 86.9177 56.4038 77.0388 66.6269 67.1396" stroke="#657E68" stroke-width="1.4274" stroke-miterlimit="10" stroke-linecap="round" stroke-linejoin="round"/>
<path id="Vector_16" d="M38.3093 112.142C27.5802 103.498 16.7499 93.4366 7.31641 83.3755" stroke="#657E68" stroke-width="1.4274" stroke-miterlimit="10" stroke-linecap="round" stroke-linejoin="round"/>
<path id="Vector_17" d="M46.9549 133.154C58.6961 120.502 69.1216 106.838 77.7858 91.8979" stroke="#657E68" stroke-width="1.4274" stroke-miterlimit="10" stroke-linecap="round" stroke-linejoin="round"/>
<path id="Vector_18" d="M59.4861 151.434C46.1861 144.693 32.886 137.932 19.5859 131.19" stroke="#657E68" stroke-width="1.4274" stroke-miterlimit="10" stroke-linecap="round" stroke-linejoin="round"/>
<path id="Vector_19" d="M79.2012 171.03C83.8774 155.706 87.5213 140.057 90.1328 124.247" stroke="#657E68" stroke-width="1.4274" stroke-miterlimit="10" stroke-linecap="round" stroke-linejoin="round"/>
<path id="Vector_20" d="M92.339 181.354C77.1968 183.48 62.1356 186.274 47.2363 189.735" stroke="#657E68" stroke-width="1.4274" stroke-miterlimit="10" stroke-linecap="round" stroke-linejoin="round"/>
<path id="Vector_21" d="M117.242 196.456C116.189 180.139 116.068 163.783 116.837 147.466" stroke="#657E68" stroke-width="1.4274" stroke-miterlimit="10" stroke-linecap="round" stroke-linejoin="round"/>
<path id="Vector_22" d="M131.776 204.493C117.443 211.882 102.24 217.611 86.5918 221.477" stroke="#657E68" stroke-width="1.4274" stroke-miterlimit="10" stroke-linecap="round" stroke-linejoin="round"/>
</g>
</svg>
