<svg width="56" height="56" viewBox="0 0 56 56" fill="none" xmlns="http://www.w3.org/2000/svg">
<g id="Group 3289">
<path id="Vector" d="M38.2823 22.7194L32.2046 16.5321C31.7877 16.1087 31.1086 16.1022 30.6852 16.5192C30.2618 16.9361 30.2554 17.6152 30.6723 18.0407L36.7565 24.2345C37.1583 24.6364 37.7193 25.251 38.2931 25.8979C38.5746 26.216 38.7745 26.5771 38.9077 26.9574H16.5483C15.9551 26.9574 15.4737 27.4389 15.4737 28.032C15.4737 28.6252 15.9551 29.1066 16.5483 29.1066H38.9077C38.7723 29.487 38.5746 29.848 38.2909 30.1661C37.7193 30.813 37.1583 31.4276 36.75 31.836L30.6723 38.0233C30.2554 38.4467 30.2618 39.1279 30.6852 39.5449C30.8958 39.749 31.1666 39.8522 31.4395 39.8522C31.7168 39.8522 31.9962 39.7447 32.2046 39.532L38.2759 33.3511C38.7014 32.9256 39.2967 32.2765 39.9006 31.5931C41.6994 29.5643 41.6994 26.504 39.9006 24.4752C39.2946 23.7918 38.6993 23.1406 38.2823 22.7237V22.7194Z" fill="#9E9E9E"/>
<path id="Ellipse 43" d="M56 28C56 43.464 43.464 56 28 56C12.536 56 0 43.464 0 28C0 12.536 12.536 0 28 0C43.464 0 56 12.536 56 28ZM2.13637 28C2.13637 42.2841 13.7159 53.8636 28 53.8636C42.2841 53.8636 53.8636 42.2841 53.8636 28C53.8636 13.7159 42.2841 2.13637 28 2.13637C13.7159 2.13637 2.13637 13.7159 2.13637 28Z" fill="#D9D9D9"/>
<path id="Ellipse 44" d="M55.8625 25.2287C56.4106 30.7394 55.3123 36.2889 52.7065 41.1753C50.1007 46.0618 46.1043 50.0658 41.2229 52.6811C36.3414 55.2963 30.7941 56.4053 25.2823 55.8678C19.7706 55.3303 14.542 53.1705 10.2578 49.6614C5.97361 46.1523 2.82617 41.4516 1.21351 36.1538C-0.399154 30.8559 -0.4046 25.1988 1.19786 19.8978C2.80032 14.5969 5.93871 9.89013 10.2162 6.37282C14.4936 2.85551 19.718 0.685596 25.2287 0.137483L25.4404 2.26589C20.3507 2.77213 15.5254 4.77628 11.5747 8.02491C7.62396 11.2735 4.72531 15.6207 3.24526 20.5167C1.76521 25.4128 1.77024 30.6377 3.25971 35.5309C4.74919 40.4241 7.6562 44.7657 11.6131 48.0067C15.5701 51.2477 20.3993 53.2425 25.4899 53.739C30.5806 54.2354 35.7042 53.2112 40.2128 50.7957C44.7213 48.3802 48.4124 44.6821 50.8192 40.1689C53.2259 35.6557 54.2404 30.5301 53.7341 25.4404L55.8625 25.2287Z" fill="#7E7E7E"/>
</g>
</svg>
