<svg width="87" height="87" viewBox="0 0 87 87" fill="none" xmlns="http://www.w3.org/2000/svg">
<path id="Star 1" d="M43.5 0L48.8682 7.88429L56.3218 1.93258L59.1276 11.0489L68.0044 7.55861L67.9985 17.0969L77.5097 16.3782L74.6925 25.491L83.993 27.6077L78.615 35.4852L86.8784 40.2492L79.4173 46.1916L85.9094 53.1797L77.0282 56.6589L81.1721 65.25L71.66 65.9569L73.0875 75.3878L63.7897 73.2595L62.3739 82.6921L54.1165 77.9178L49.9833 86.5141L43.5 79.518L37.0167 86.5141L32.8835 77.9178L24.6261 82.6921L23.2103 73.2595L13.9125 75.3878L15.34 65.9569L5.8279 65.25L9.97179 56.6589L1.09064 53.1797L7.58271 46.1916L0.121635 40.2492L8.38505 35.4852L3.00699 27.6077L12.3075 25.491L9.49033 16.3782L19.0015 17.0969L18.9956 7.55861L27.8724 11.0489L30.6782 1.93258L38.1318 7.88429L43.5 0Z" fill="#45726C"/>
</svg>
